<svg version="1.1" id="Capa_1" xmlns="http://www.w3.org/2000/svg" xmlns:xlink="http://www.w3.org/1999/xlink" x="0px" y="0px" viewBox="0 0 595.28 841.89"  xml:space="preserve">

                <path  id="zona1" d="M119.55,115.15l4.59,4.13l3.67,3.67l-1.83,4.13v4.13l1.83,2.29v4.59l-4.13,3.21v5.96l-4.13,7.34l4.13,2.29v4.59
                    v4.13h-4.13l-2.75,3.67c0,0,0.92,1.83,0,4.13s0,9.63,0,9.63l1.83,4.13l-5.5,2.29v3.67l3.67,3.67l-3.67,2.75c0,0-0.46,3.67,0,3.67
                    c0.46,0-0.2,4.59-0.2,4.59h-3.46l-3.67,1.83v4.13l-2.29,5.04v3.67l-4.59,2.29v3.67v3.21v5.5v2.75c0,0,1.83,0.92,0,2.29
                    c-1.83,1.38-3.21,6.42-3.21,6.42l3.21,3.21l3.67,3.21l-0.46,5.96l-6.42,5.96l3.21,4.59l2.29,3.21v4.59l-3.67,2.29l1.38,4.59v5.04
                    l-3.21,4.13v4.59v3.21l4.59,2.29l0.92-5.04l7.8,0.92l4.59,0.92l3.67,3.21h3.67l5.04-3.67l6.88,0.92l2.75,0.46l7.34,2.29h4.13v3.21
                    l3.67,2.75l4.13,1.83v-5.5v-4.13v-3.21v-2.29l-4.59-4.59l2.75-4.59l-0.46-2.29l2.29-6.88v-7.34v-3.21l4.59-0.92l3.67-3.21v-8.25
                    v-2.29v-3.67v-2.75v-5.5l4.13-4.13l2.29-0.92v-2.75l2.75-3.67l2.75-2.75l2.29-0.92l-2.29-3.67l2.29-1.38v-5.5l3.21-2.75l2.29-4.13
                    v-2.29l-4.13-1.38v-3.67l4.13-0.92v-2.29v-5.5c0,0-1.83-1.38,0-3.21s4.59-2.75,4.59-2.75v-4.13l3.67-3.67v-4.59l-5.5-6.88l-5.04-5.5
                    l-2.75-2.75h-10.09l-4.13,1.38l-5.5,2.29l-4.13-4.59l0.46-7.8l1.38-4.59l4.59-2.75v-3.67l4.59-4.13l2.75-0.46l-0.46-3.67l1.38-5.5
                    l-1.83-2.75l2.75-1.83l3.21-4.13l-0.46-5.5v-3.21l-2.29-5.5h-2.29l-2.29-3.67h-3.67h-2.75h-3.67l-5.96,2.75l-1.83,4.59h-4.13
                    c0,0-2.75-0.92-4.59,0s-1.83,0.92-1.83,0.92l-3.21,0.46l-3.67-2.29h-4.13l-2.29,4.59L119.55,115.15z"/>
                <path id="zona1" d="M164.58,109.18"/>
                <path id="zona1" d="M164.67,106.2l5.5,5.5l-2.75,1.83l2.75,2.29v3.67c0,0-3.21,2.75-2.75,4.13c0.46,1.38-2.75,2.29-2.75,2.29v5.04
                    v2.29v3.21v2.29l-3.67,2.29c0,0-3.21-1.83-3.21,0s0,4.59,0,4.59l-3.67,3.67l-3.67,2.75v6.42v5.04h3.21l3.21,1.83h3.44l4.36-3.21
                    l5.5,0.92l2.75,0.46h3.21l3.21,5.04v3.21l2.75,2.75l3.21,5.96l2.29,3.21l-3.21,3.67v3.67v2.29h-4.59l-0.46,4.13v3.21
                    c0,0,1.38,0.46,0,2.29c-1.38,1.83-3.67,2.29-3.67,2.29l-1.38,2.75l3.21,1.83h2.75l-0.92,4.13l-2.75,2.29
                    c-0.92,3.21-0.92,3.21-0.92,3.21l-2.29,5.04c-1.83,3.21,1.83,5.04,1.83,5.04l-2.29,1.83l-3.9,2.29v3.21h-2.52l-1.83,3.67h4.36h3.44
                    h4.59h3.21h4.13l0.92-3.67l2.29-1.38l3.21,0.92l4.59-1.83l2.75,1.38l2.75,1.38v3.21h2.29v3.67v4.59l-3.21,4.13h3.21h4.13l2.29,3.21
                    h2.29h2.29l3.67-2.29v2.29l2.29,2.29l1.83,3.21l5.04,3.21h6.42l3.67,2.29l3.21,1.83v2.75v3.21l5.04,2.75l3.21,2.75l4.13,2.75
                    l2.29,5.96l2.75,3.67h2.29v4.59h4.13v-5.04c0,0,2.29-0.92,3.67-1.38c1.38-0.46,1.38-0.46,1.38-0.46l3.67-0.92l4.59-2.75l2.29,2.29
                    l2.29-3.67l2.29-4.13v-2.75c0,0-4.13-1.83-3.21-3.67c0.92-1.83,0.92-1.83,0.92-1.83s-0.46-2.29,2.29-3.21
                    c2.75-0.92,4.13-2.75,4.13-2.75l4.13-1.38v-4.13v-6.42v-3.21v-2.29v-5.5h2.29h2.82l4.06-2.29l3.21-3.67l4.13-0.92v-3.67v-3.21
                    l2.91-4.13v-2.75l-3.36-2.75l-2.29-4.13l-3.67-2.29l1.83-5.04l-4.13,0.92l-2.69,3.21v2.75l-3.73-5.5l-0.46-3.67l-3.21-0.46
                    l-2.29-4.82l-2.75-2.06c0,0,2.75,0-0.92-2.29c-3.67-2.29-3.67-2.29-3.67-2.29l-2.75-1.38l-1.83-2.75v-2.29l-5.04-2.29l-2.75,1.83
                    l-2.29,0.46l-3.21,2.29l-7.34-2.29l-2.75-2.75l-4.59-2.29l-3.21-1.38l-6.88-1.83h-2.29l-4.51-0.92v-5.5v-4.13v-3.21v-5.5l-3.29-1.38
                    l-4.13-1.83l-3.67-0.46l-3.67-5.96l0.46-3.21v-2.29l-2.29-3.21l0.92-2.29l0.92-6.42h3.67l1.38-2.75l1.83-2.29l0.92-3.21h-3.67
                    l-2.75-3.67l-0.46-2.75l0.92-2.75l1.38-3.21l0.92-4.59l-4.13-2.75h-2.75l1.38-3.67h2.29l-0.46-5.04h-2.29h-2.75l0.46-2.29
                    l-4.59-3.21h-2.29v2.29l-2.29,2.29l-3.21,1.38l-3.67,2.75l-3.21,1.83l-1.38,3.67h-4.59h-4.59l-2.75,4.13l-3.67-4.13h-4.59h-4.59
                    H164.67z"/>
                <path id="zona1" d="M161.9,241.62v2.29v2.75v2.29l-2.75,2.29l3.44,2.75v4.13c0,0-4.36-1.27-3.44,1.89
                    c0.92,3.16-0.13,6.37-0.13,6.37s0.33,1.38,0,2.29c-0.33,0.92-3.08,0-3.08,0l-5.5,2.75v4.59c0,0-0.46,0.92,0,2.29
                    c0.46,1.38-0.2,5.04-0.2,5.04s-0.66,0.92,0,2.75c0.66,1.83-0.29,3.21-0.29,3.21l2.33,3.67l-2.33,5.04l2.33,2.29v3.67
                    c0,0-4.21,0.46-2.33,2.75c1.87,2.29,1.87,2.29,1.87,2.29l0.92,6.42l0.46,3.21l2.29,2.29h2.26l1.87,1.83h2.75l3.67-3.67l3.21,3.67
                    v5.96l2.29,2.75h2.29l2.29,2.29c0,0-1.83,1.83,0,3.21c1.83,1.38,3.67,5.04,3.67,5.04h-2.75l-2.75,5.04h2.75h2.75l1.83-2.29
                    l2.29-1.83l1.83,4.13l3.67-4.59v-3.67l-2.29-3.21l2.29-0.92h3.67l4.59,2.75l2.29,1.38l2.75-2.75v-3.21l5.04-1.38h2.29l2.75,0.92
                    c0,0,2.75,0,2.29,1.38s-0.46,1.38-0.46,1.38l0.51,1.38l3.16,1.38l4.13,0.46l3.21-5.04v-2.75l2.75-0.46l3.21-3.67l1.83-5.96
                    l2.29-0.46l3.67-1.38l3.21-2.29v-4.13v-3.67v-4.59l2.75,0.46l4.13-1.38v-2.29l3.67-2.29l3.67-3.21h4.13v-5.5l-3.67-2.29l-3.21-2.75
                    v-2.75l-5.5-4.13l-2.75-1.38l-3.21-1.83l-1.38-4.13l-0.92-3.21l-2.75-1.83l-3.67-0.46l-3.21-0.46l-2.29-1.38l-2.29-3.16h-4.13
                    l-2.75-1.89v-3.21l-2.29-3.21l-2.29,1.38l-2.29,0.92l-3.67,0.92l-0.46-2.29h-3.01h-3.41l-2.75-1.38l2.29-2.29l1.38-2.29l-1.38-3.67
                    l3.87-1.38v-3.21l-2.03-4.13h-3.21h-4.59h-5.5l-4.13,3.21l-0.92,2.29l-3.67-0.46h-4.13l-3.21,0.92l-4.59-2.29L161.9,241.62z"/>
                <path id="zona1" d="M298.62,207.59l5.5-1.83l2.45-3.67v-4.13v-2.75h2.6l2.75-3.67h3.67v-2.29h4.59h2.29l2.29,1.83l2.29-1.83v-4.59
                    v-2.75h-3.21l-1.38-4.59l-1.38-2.75l3.21-2.29l2.75-2.29l7.8-2.29l5.04-2.29l4.59-3.67h3.67l5.04-3.67l3.21-2.29l2.75,3.67v6.88
                    v2.75l4.13,3.67l1.83,4.13l5.5,0.92l2.75-0.46l2.29,4.36v-2.52h5.96l3.21,2.52l2.75,3.9l2.29,0.92l3.21,2.75l2.29-2.75l2.75-2.75
                    l2.75-2.06c0,0,1.38,3.44,0,4.82s-2.75-1.83-1.38,1.38s1.38,3.21,1.38,3.21l4.59,3.67l3.67,2.75l4.13,1.83l4.13,2.75l2.29,3.67
                    l-2.75,1.83l-1.38,6.42v4.13l-5.04,5.5l-0.92,4.13l-3.67,2.29h-4.59l-4.13,4.13v2.75l1.38,3.67l-0.46,2.29l-5.04,3.67h-3.67
                    l-3.21-2.29l-4.13,2.29h-3.21l-3.21,2.75h-2.29h-4.59l-1.83,2.75l-4.13,3.67l-5.5,3.67l-0.46,2.29h-3.21l-1.38-3.67
                    c0,0-2.75-0.92-2.75,0.46s-3.21,3.21-3.21,3.21l-1.83,3.67l-2.75-2.29l-0.92,2.29h-3.67h-3.21h-3.21l-0.92,4.13h-2.29l-3.67,2.29
                    l-2.29-6.42l-2.29,1.83l-5.04,4.59l-2.75-1.83l-4.89-0.92v-2.29h-2.45l-1.83-2.29l-3.67-0.92h-6.36l2.23-3.21l-2.23-1.38h-3.73
                    l-2.75-3.67v-3.21v-5.04v-3.21v-2.29l4.13-0.46l2.36,2.75l4.98-0.92l2.29-2.75v-2.29l2.75-2.29l4.28-3.67v-4.59l2.6-3.67l-2.6-1.83
                    l-3.36-2.75l-2.29-1.83l-2.75-0.46l-0.46-5.04L298.62,207.59z"/>
                <path id="zona1" d="M333.61,262.36h0.34c0.65,0,1.17-0.53,1.17-1.17v-1.09c0-0.31,0.12-0.61,0.34-0.83l2.92-2.92
                    c0.47-0.47,1.23-0.46,1.69,0.03l2.07,2.21c0.2,0.22,0.32,0.5,0.32,0.8v0c0,1.07,1.3,1.58,2.03,0.8l1.11-1.19
                    c0.04-0.05,0.08-0.1,0.12-0.15l1.89-2.84c0.22-0.33,0.58-0.52,0.98-0.52h2.47c0.36,0,0.7-0.17,0.93-0.45l2.76-3.55
                    c0.06-0.08,0.12-0.17,0.16-0.27l1.47-3.5c0.18-0.44,0.61-0.72,1.08-0.72h1.51h5.04h4.1c0.53,0,0.99-0.36,1.13-0.87
                    c0.25-0.92,0.75-2.27,1.64-2.57c1.02-0.34,2.8-0.18,3.65-0.07c0.3,0.04,0.58,0.19,0.77,0.43l2.11,2.64
                    c0.22,0.28,0.56,0.44,0.92,0.44h2c0.4,0,0.78-0.21,0.99-0.55l1.84-2.93c0.07-0.11,0.16-0.21,0.26-0.29l2.61-2.07
                    c0.28-0.22,0.44-0.56,0.44-0.92v-3.59c0-0.27-0.1-0.54-0.27-0.75l-1.44-1.73c-0.34-0.41-0.36-1-0.05-1.43l1.42-1.98
                    c0.22-0.31,0.58-0.49,0.95-0.49h4.41c0.31,0,0.61-0.12,0.83-0.34l1.61-1.61c0.22-0.22,0.52-0.34,0.83-0.34h1.09
                    c0.65,0,1.17-0.53,1.17-1.17v-3.45c0-0.27,0.1-0.54,0.27-0.75l1.99-2.38c0.02-0.03,0.05-0.05,0.07-0.08l2.19-2.19
                    c0.05-0.05,0.09-0.1,0.13-0.15l0.11-0.15c0.66-0.93,2.13-0.46,2.13,0.68v3.25c0,0.27,0.1,0.54,0.27,0.75l1.89,2.27
                    c0.08,0.1,0.18,0.19,0.3,0.25l4.42,2.65l4.31,2.58c0.18,0.11,0.39,0.17,0.6,0.17h2.13c0.2,0,0.39,0.05,0.57,0.15
                    c0.56,0.31,1.88,1.09,2.94,2.15c1.25,1.25,2.11,5.12,2.27,5.84c0.02,0.08,0.02,0.16,0.02,0.24v2.63v2.75v2.98v2.63
                    c0,0.23,0.07,0.46,0.2,0.65l2.51,3.77c0.03,0.04,0.05,0.08,0.07,0.13l2.6,5.19c0.08,0.16,0.12,0.34,0.12,0.52v1.3
                    c0,0.65,0.53,1.17,1.17,1.17h1.12h1.12c0.65,0,1.17,0.53,1.17,1.17v2.04v2.29v5.04v3.87c0,0.65,0.53,1.17,1.17,1.17h0.4
                    c0.65,0,1.17,0.53,1.17,1.17v1.78c0,0.65,0.53,1.17,1.17,1.17h0.4c0.65,0,1.17,0.53,1.17,1.17v2.64c0,0.39,0.24,0.72,0.58,0.92
                    c0.32,0.19,0.47,0.64-0.58,1.69l-1.61,1.61c-0.14,0.14-0.32,0.25-0.52,0.3l-4.58,1.25c-0.11,0.03-0.22,0.08-0.31,0.14l-3.11,1.94
                    c-0.27,0.17-0.46,0.43-0.52,0.74l-0.81,3.65l-0.91,3.63c-0.01,0.03-0.02,0.06-0.03,0.09l-1.77,5.32c-0.03,0.09-0.07,0.18-0.12,0.26
                    l-3.01,4.74c-0.07,0.12-0.16,0.21-0.27,0.3c-0.37,0.28-1.32,1.09-1.68,2.18c-0.43,1.28-1.25,4.95-1.36,5.45
                    c-0.01,0.04-0.02,0.08-0.02,0.12l-0.34,3.02c-0.07,0.59-0.57,1.04-1.17,1.04h-3.08h-5.74c-0.15,0-0.3-0.03-0.44-0.08l-6.22-2.49
                    c-0.29-0.12-0.52-0.34-0.64-0.63l-1.17-2.72c-0.01-0.03-0.02-0.06-0.03-0.09l-0.99-2.97c-0.2-0.61-0.87-0.95-1.48-0.74l-2.63,0.88
                    c-0.25,0.08-0.46,0.25-0.61,0.46l-1.35,2.02c-0.17,0.25-0.43,0.43-0.73,0.5l-5.65,1.2c-0.23,0.05-0.47,0.03-0.69-0.06l-1.19-0.48
                    c-0.44-0.18-0.94-0.08-1.27,0.26l-1.17,1.17c-0.34,0.34-0.86,0.44-1.31,0.24l-3.28-1.46c-0.07-0.03-0.14-0.07-0.21-0.12l-2.94-2.1
                    c-0.11-0.08-0.24-0.14-0.37-0.18l-4.53-1.23c-0.21-0.06-0.43-0.06-0.63,0l-2.67,0.76c-0.15,0.04-0.3,0.05-0.45,0.04l-3.44-0.38
                    c-0.3-0.03-0.57-0.18-0.76-0.4l-2.3-2.68c-0.1-0.12-0.17-0.25-0.22-0.39l-0.54-1.62c-0.18-0.53-0.7-0.86-1.26-0.79l-2.64,0.33
                    c-0.05,0.01-0.1,0.01-0.15,0.01h-2.03c-0.13,0-0.25,0.02-0.37,0.06l-2.57,0.86l-3.08,1.03c-0.59,0.2-1.23-0.1-1.46-0.68l-0.27-0.68
                    c-0.15-0.37-0.47-0.64-0.86-0.71l-3.96-0.79l-2.38-0.4c-0.24-0.04-0.46-0.15-0.64-0.33l-1.22-1.22c-0.22-0.22-0.52-0.34-0.83-0.34
                    h-1.55c-0.65,0-1.17-0.53-1.17-1.17v-1.12v-2.96c0-0.16,0.03-0.33,0.1-0.48l1.47-3.31c0.16-0.37,0.13-0.79-0.1-1.13l-1.19-1.79
                    c-0.18-0.27-0.46-0.45-0.78-0.51l-4.02-0.67c-0.57-0.09-0.98-0.58-0.98-1.16v-0.67c0-0.39,0.2-0.76,0.52-0.98l3.2-2.13
                    c0.26-0.17,0.44-0.44,0.5-0.75l0.17-0.87c0.11-0.55,0.59-0.94,1.15-0.94h1.07c0.65,0,1.17-0.53,1.17-1.17v-2.42
                    c0-0.57,0.41-1.06,0.98-1.16l1.15-0.19c0.39-0.06,0.71-0.32,0.88-0.67l1.48-3.25c0.29-0.65-0.05-1.41-0.73-1.61l-3.02-0.9
                    c-0.19-0.06-0.36-0.16-0.49-0.29l-2.59-2.59c-0.48-0.48-0.45-1.25,0.04-1.7l1.04-0.94c0.22-0.19,0.5-0.3,0.78-0.3h2.05
                    c0.65,0,1.17-0.53,1.17-1.17v-0.77c0-0.59-0.44-1.09-1.03-1.16l-1.94-0.24c-0.43-0.05-0.8-0.34-0.95-0.75l-0.53-1.42
                    C332.22,263.17,332.79,262.36,333.61,262.36z"/>
                <path id="zona1" d="M281.32,254.66h3.21h3.21v3.48h3.21h3.21l3.21,3.4h3l2.5,2.75h2.75h3.21h2.75v-2.75l2.29,0.46l1.83,2.29h2.29
                    v3.21h2.29v-4.13h3.21h2.29v-5.24l4.13,2.94h3.21l3.67-2.94l2.7,2.94v1.83v2.29l-2.24,2.29l2.24,4.03l2.8,2.39l-2.8,2.29l-2.24,3.67
                    l-0.92,3.67l-1.83,3.21h-3.67l0.92,3.21l2.75,2.29l1.83,2.75l0.92,3.21l-2.75,2.29l-0.92,3.67h-2.29l-0.92,2.75l-0.92,3.21
                    l-2.75,3.67l-2.29,2.29l-4.59,2.29l-1.83,6.69h-2.75v5.24l1.38,3.21l-2.29,2.29l-2.52,4.13v2.29h-2.98h-3.67l-0.46,5.5l-6.88,2.29
                    h-5.5v-3.21l-6.36-1.38l-4.65-0.92l-3.21-1.38l-2.75,0.92l-3.21-0.46l-2.75-0.46c0,0,0,1.38,0,2.75s0,4.13,0,4.13l-1.83,2.29h-2.29
                    h-3.67v5.5l-2.29,3.67v2.29l-2.29,2.29v3.67h-3.21h-3.51v-2.75v-2.75l-3.37,1.83v-3.21l-2.75-3.67l-2.75-0.92l-3.67-0.92v-2.29
                    h-3.21l-3.67,1.83v-3.67c0,0-3.67-2.29,0-2.29c3.67,0,3.67,0,3.67,0l2.75-0.92l0.92-5.5l2.75-2.75l3.21-1.83l-0.46-3.21l-1.38-2.75
                    l3.21-2.75c0,0,4.9-5.5,4.74-3.21c-0.16,2.29,3.97-0.46,3.97-0.46l1.83-2.49l0.46-2.1l0.46-2.29h2.75v-3.21l1.83-3.21v-2.06
                    l0.46-4.82v-3.21l0.92-2.75l2.29-1.83l4.13-1.38l-1.38-2.75l2.75-4.13l-1.38-2.75l-2.29-3.21l4.13-1.83v-4.13v-3.21l-1.38-4.68
                    l1.83-4.03l2.29-2.29h2.75l2.75-3.67l1.83-3.4V254.66z"/>
                <path id="zona1" d="M206.14,329.77l4.59,2.29h3.67l3.21-1.15v-4.91l3.67-2.85v-2.1l2.92-2.29l2.12-2.75l2.29-2.29h4.59l2.29-5.27
                    l-2.75-2.06l2.75-1.83v-2.29v-3.67h4.13h3.21v-4.13l4.59-2.29l4.59-4.59h2.91h2.6v-3.67h4.13l2.29-2.75h4.13l3.21-2.29v4.13v3.21
                    l3.67,0.46v3.67V294l-3.21,2.29l-2.29,0.46l-2.29,5.5c0,0,0-0.92,0,3.21s0,4.13,0,4.13l-1.38,5.04l-1.38,3.21l-2.29,0.92l-3.21,4.39
                    l-0.46,2.85h-3.51l-5.5,2.39l-1.99,3.67v4.13h-2.75c0,0,0.46,2.29-0.46,3.67c-0.92,1.38-3.67,5.04-3.67,5.04v2.75l-3.21,2.75
                    l-1.38,2.75l2.29,2.29l2.29-3.67l1.83,3.67l3.67,2.29h3.37v4.59l2.14,3.67l0.92-3.67l2.45,1.83v6.42h-2.45l-3.05,4.13v4.28v3.52
                    h3.05v3.67h-3.05h-2.45l-1.83,2.75h-2.29l-2.29,2.75h-2.29l-2.75-1.83v4.59h-2.75h-5.5h-3.04h-2.46v3.67h-3.21h-4.59h-2.29
                    l-2.75-4.13l-2.75-2.29l-2.29-1.83l-2.29-0.46v-5.5v-2.29l-3.21-2.6h-4.69l-2.19-1.99l-3.21-0.46v-2.75l-5.21-1.83l-2.59,1.83
                    l-3.67,0.46h-2.29v-2.29l4.59-3.67l-1.38-2.29h3.21l2.13-5.5v-2.75l-2.13-1.83v-2.29l2.13-1.38l2.46-4.13l-2.46-2.75v-4.59
                    l-3.5-2.29l0.46-2.29v-2.75l-1.83-3.21l4.88-1.38l2.46-0.92l2.75,4.13l5.4-2.29l2.4-3.77h2.29h2.75h2.29L206.14,329.77z"/>
                <path id="zona1" d="M94.71,300.92h2l3.21-3.21h3.21h2.29h2.29l5.04,5.96l5.96-2.98l4.13-2.98l2.29,2.98h3.67h5.96h4.13
                    c0,0-0.17-4.36,3.5-2.98c3.67,1.38,2.55,5.96,2.55,5.96l0.16,2.75l2.96,2.75h2.39v3.21l2.2,2.1h2.29l2.29,3.86h2.75v-2.29l4.13-1.57
                    l1.83,3.86l2.75,5.5v5.96h5.04h2.29v4.59l2.75,2.75h-4.59l-0.46,3.67c-2.75,1.83-4.59,4.59-4.59,4.59h-2.75h-3.21l-0.92-2.29h-2.29
                    h-2.75l2.29,4.59v3.21l-3.21,2.29h-2.75l-3.12,2.75v-2.75h-2.85h-2.66v2.75l-2.55,4.13h-3.04l-2.61,3.67v2.29l-1.98,2.75l-0.92,5.04
                    v2.75h2.9l-1.98,3.82l-0.92,2.6l-1.83,3.21l-0.46,3.21h-4.13c0,0-1.83,0-3.21,0s-3.21,0-3.21,0l-0.92,2.75h-3.67h-2.29l-2.75-3.21
                    l-1.83,3.21h-3.21h-5.04l-2.75,2.29l-1.38,3.21l-2.46,3.21h-2.59v3.67v2.29h-4.13l-2.29-2.75c0,0-1.38-0.46-3.21-0.46
                    s-4.13,3.21-4.13,3.21h-3.21v-3.67l-2.29-0.46l-2.29-1.38v-2.75l1.83-2.75l3.21-2.29l2.75-2.29l-2.29-4.13l-3.21-1.83l-0.92-4.89
                    l1.83-1.99l-3.21-4.59l-2.29-3.21v-3.67l5.5-1.83l2.29,1.83l3.21-3.21l4.13-2.29l0.92-4.59l3.21-0.92l2.29-0.92l2.29-2.89
                    l-1.83-4.91l-1.38-4.59l-3.67-1.38l-1.38-3.21l4.13-1.83l-0.46-2.75l0.46-3.67l4.13-2.39h2.59l-2.59-3.57l0.46-2.75l2.13-3.67
                    l-3.04-2.94l-1.38-3.93l2.29-2.75l2.13-4.13V300.92z"/>
                <path id="zona1" d="M130.87,362.33l4.13-4.13l2.13-2.29v-5.04h2.55l5.5,2.29l4.03-2.29h3.21v-2.75v-5.04h3.67h4.59h5.5h2.75
                    l2.75-1.93l4.07-2.66l3.73,2.66h3.67l4.13,7.43l-2.46,1.83l-1.67,5.5l-0.46,6.42l-4.13,4.59l-0.46,3.21l-2.35,4.59h2.81h2.75
                    l3.5-3.21l2.46,1.38v4.13h2.29h5.86l2.86,1.99c0,0,2.29-3.52,2.29,0c0,3.52,0,5.81,0,5.81v3.21l4.59,2.75h3.67v3.21l2.75,1.87
                    c4.59,1.8,4.59,1.8,4.59,1.8l3.21,2.75h-2.75l-1.83,3.67c0,0-0.46,0.92-0.46,2.29s0,1.38,0,1.38l-1.38,2.21l0.46,4.21h-2.75h-2.75
                    h-3.21h-4.13l-5.15-1.83v6.42l-3.56,2.29l-1.38,2.29l-5.67,6.88l-2.13,4.59l-1.83,3.67l-3.21,5.04l-1.89,3.67l-3.15,7.34l-2.75,4.13
                    l-3.67,5.04v2.75l-3.21-2.29h-3.67l-3.67,2.29l-2.75-4.59c0,0-1.83,0.46-3.21,0s-1.38-0.46-1.38-0.46h-3.12l-2.39-0.46l-0.46-3.67
                    l-2.66-4.59l-2.55-2.75l2.55-2.75l-2.55-2.29l2.55-3.67h-2.55l-6.25-0.92l-5.04-0.46v-3.67v-2.75v-3.21l-2.29-1.83v-3.21v-5.96
                    v-2.75v-4.59v-4.13l3.67-2.29l0.46-2.98v-6.61l1.83-2.79l2.29-1.38l0.46-3.21l-3.67,0.92l-2.29,0.92l0.46-3.21l1.38-4.13l4.13-3.97
                    l-1.38-3.36l-1.38-6.88l-0.46-3.67L130.87,362.33z"/>
                <path id="zona1" d="M72.07,400.85h4.13h2.75h5.04h2.29l5.8-5.5l1.54-2.25l1.83-2.79h3.21h2.29h2.29l2.75-2.75h3.67h3.9h3.9h3.67
                    l2.29-2.29h2.75l2.75,2.75l4.59-2.75v4.13l-3.21,3.71l0.92,5.01l-1.83,2.75l-2.29,6.33l-0.92,4.21l-0.46,3.21v2.29l-0.92,2.75
                    l-1.38,3.67l4.13,3.21l1.83,2.75l-0.92,3.67v2.75l2.75,1.83h4.13h4.42v3.67h2.55l-2.55,2.75v4.59h2.55l2.66,4.13v2.29v3.21h2.85
                    h3.57l5.04,2.29h2.29v3.21c0,0-1.83-3.21-2.29,0c-0.46,3.21-0.46,3.21-0.46,3.21l-3.67,2.75l-1.83,2.75l-2.66,2.29v2.29l-2.85,3.21
                    l-0.46,2.29l-2.2,4.59l-2.55-3.21l-2.13,0.46l-4.59,2.75h-2.75h-4.13l-3.21,3.21l0.92,3.67l-0.46,2.29h-3.21h-2.29l-2.52,5.5h-1.83
                    l-2.52-2.29l-3.67,2.29h-2.29h-3.21l-0.92-2.75l-2.29-0.92l-1.38-2.29l-5.21-2.29l-2.59-1.38l-2.75-1.83l-4.13-1.83l-2.29-0.92
                    l-2.75-1.83v-3.67l-3.21-1.83h-2.29h-4.59H62.9l-4.59,3.67l-4.59,1.38l-4.59,0.46v-2.29l-4.13-3.67l2.75-2.75l0.92-2.75l-3.67-2.29
                    l4.59-1.83l2.75-0.92l3.21-0.46l2.75-2.29v-4.59v-2.29v-2.29l3.21-0.92l0.46-2.75v-5.04l-0.46-2.75v-2.29l1.83-3.67l2.75-0.46
                    l3.67-2.75l2.29,0.46l-2.29-4.13l1.83-5.5l0.46-3.67l2.75-2.75l-2.75-3.21l-1.38-2.29l0.46-3.67v-2.75l-2.29-1.92l-1.38-4.04
                    L72.07,400.85z"/>
                <path id="zona1" d="M215.95,407.92l2.52,4.67l2.29,2.29v3.21v4.13l-2.41,2.75h-2.41v5.5v5.5l-2.98,6.42h2.98l0.92,5.5l-0.92,3.21
                    h4.82v4.59l2.75,1.83l4.3-4.59l2.12-2.29l6.42,2.75l2.75-0.46c0,0-0.92,3.67,0,4.59c0.92,0.92-2.29,4.59-2.29,4.59l-0.46,4.59
                    l2.92,3.21l-3.83,5.04h3.83v2.75l-2.92,3.21l2.92,3.21l2.13,2.29v2.29v2.29l-3.21,3.21l-0.92,5.04l-4.25,3.21v4.13v4.59
                    c0,0,0.33,3.67,0,5.04s0,4.59,0,4.59l-5.2,3.67v5.96h-4.3l-4.59-2.75l-5.96-0.46l-2.75-3.67v-2.29l-5.5,3.21v5.96l-3.21,2.29v2.29
                    v3.21l-4.23,2.29v3.67v5.04v3.67l-2.65,2.75v2.75c0,0,1.63,0.92,2.65,1.83c1.02,0.92,0,5.04,0,5.04l1.94,4.13l-1.94,3.21v5.5
                    c0,0-3.11,1.38-2.65,2.75c0.46,1.38-0.05,3.21-0.05,3.21l-2.25,1.83l-2.75,2.75l-2.92,5.5v3.21l-3.04,5.5l-2.75,4.13v2.75h-3.27
                    l-2.23,5.04l-2.75,2.29v3.67v3.67h-4.59v-5.5v-2.75v-4.59l3.21-3.67l2.29-4.13l-2.75-4.13l-2.75-0.46l-3.21,0.92l-2.29,1.38h-2.29
                    l-2.75-1.83l-2.17-2.29l-2.42-1.38l-2.75-1.38l-3.12-2.29v-5.04l4.03-2.29l-1.83-4.13l1.83-2.29l2.29-4.59v-3.67l1.96-3.67
                    l-4.25-0.92l-0.46-2.75l1.83-6.42l-0.92-2.29l1.38-3.21l-2.29-1.38l-3.57-1.38l2.2-2.29l1.83-2.75l2.29-2.29l1.96-5.96l2.63-2.75
                    l3.21-0.46l1.38-2.75l1.38-4.13l-0.46-3.67l-1.38-3.21v-5.96v-3.21l-6.75-2.75l-2.88-4.59v-5.04l-0.92-4.59l-4.49-1.38l-5.5-1.83
                    l2.66-5.96l0.46-5.5l2.39-2.29l2.66-1.83h2.75l2.88-4.59l2.17-2.29l2.75-2.29l2.29-0.92c0,0,0.92-0.92,2.29-0.92
                    c1.38,0,3.21-1.38,3.21-1.38l2.29-2.75l1.83-4.13l5.44-5.96l1.89-5.96l2.29-5.5l4.88-8.25l4.8-5.96l2.25-3.67l0.92-4.13l2.65-2.75
                    v-3.76l5.15,2.84l5.04,0.46l4.13-1.38L215.95,407.92z"/>
                <path id="zona1" d="M236.67,393.67V396v2.25l2.29,2.75c0,0,0-0.92,2.75,0c2.75,0.92,3.67,2.75,3.67,2.75l2.75,2.75v3.58l3.37,4.67
                    v2.66h-4.28l-0.92,2.84l0.92,3.67l1.38,3.67v5.04l-1.83,4.13v3.67l-2.67,5.04l-2.37,4.59l-0.92,3.21l-2.29,4.59l-1.83-3.21
                    l-5.17-1.38h-5.2l-0.28,2.29l-3.56,2.29l-3.21-3.67l-2.75-0.46v-3.67l-2.06-2.75l-3.44-3.67l3.44-2.29v-3.67v-5.04v-3.21v-3.67h2.98
                    h3.21l0.46-4.13l-0.46-2.29l-3.21-5.5l-2.98-3.76v-3.58v-4.13l4.36-3.67l4.13-2.71h3.1l2.86-2.33h2.37H236.67z"/>
                <path id="zona1" d="M167.81,621.27l3.61-2.29h1.89h3.21l3.96-2.75h3.38v-5.04l3.21-3.21l4.02-1.83l1.48-5.01h3.21l3.67-3.25h2.75
                    h2.29l3.21-2.75v-3.21l2.06-3.67v-2.29h-2.52l-1.38-3.21l3.9-1.83h3.44l1.89-4.59l2.69-2.75l3.84-4.59l5.2-4.13v-4.13l2.88-4.59
                    l1.89-3.21v-2.75h4.08h3.67h2.75h4.74h4.43v-3.67l5.04-1.83v-3.67v-2.29l2.29-2.75v-3.67v-3.21v-2.75h4.59l3.67-3.21v-4.13
                    l-2.29-2.75l-4.13-2.75l0.92-4.59l0.92-3.67h-3.21v-2.29l-0.92-2.75h-3.67v-4.59l0.46-2.76l-1.83-4.58l-2.29-2.75l2.29-3.21
                    l3.21-6.88l2.75-3.21l2.75-4.59l5.04-3.67v-3.67l1.83-5.04v-2.29l-3.21-1.83h-2.75l-0.46-2.29l0.46-4.13l0.92-2.75l0.46-2.29v-2.75
                    l2.29-1.83l2.29-1.83h3.15h1.89v-4.13v-4.59h3.21l2.75-5.5l3.67-3.67v-2.52l4.65-2.98v-3.21h2.69l2.75-1.92v-4.5
                    c0,0-2.75-0.92,0-2.75c2.75-1.83,2.75-1.83,2.75-1.83v-2.75v-2.25l1.83-2.33h-4.13l-2.75-3.72l-3.15,1.42l1.77-5.27l3.21-2.06v-4.89
                    c-1.83-2.9-1.83-7.95-1.83-7.95l1.38-7.8v-2.75l-4.52-2.75l2.69-2.75l-0.46-4.22h3.21l0.92-3.12l-3.21-4.13h-3.15l-4.65-2.39h-3.21
                    h-3.21h-2.75l-2.35,1.93v5.04l-2.69,2.66h-3.21l-3.21,1.93l-0.46,3.21l-1.83,2.75l-2.29,4.59l2.75,1.83l-0.92,3.67l-3.67-0.92
                    l-2.29,1.83l-4.59,0.46l1.38,4.13h-3.97v4.49v4.22v2.98h2.14l-5.5,3.85h-2.29h-3.21h-5.04v2.8v5.5l3.21,3.67l3.67,1.83h2.75
                    l0.46,6.33l1.38,2.84l2.45,5.27h-4.74v4.82l2.29,3.21l0.46,6.42l-1.38,2.75l-0.92,4.13c0,0,0.46,3.67-0.46,5.04
                    c-0.92,1.38-4.59,5.5-4.59,5.5c-1.83,3.21-4.59,8.25-4.59,8.25v4.13l-1.32,5.5v2.75l1.32,3.21l-3.21,3.21l3.21,1.83
                    c0,0-1.83,0.92,0,2.29c1.83,1.38-1.32,4.59-1.32,4.59l5.45,2.29l0.92,2.75l-5.04,1.83v2.75v2.75l-1.32,4.13l-4.77,1.83v4.59v5.96
                    v2.29v3.21l-2.62,3.21l-0.46,3.67l-2.12,2.75l2.12,3.21l-2.12,0.46l-4.3-2.29l-5.99-2.29l-4.56-2.75l-3.21-2.29l-2.75-0.92
                    l-0.92,4.13l-4.13,6.42l0.46,3.21v5.04l-3.21,1.83l-1.94,4.13v3.21v2.29v2.29l-2.19,2.29l2.19,2.29v2.75v4.13l2.86,3.67l-0.46,3.67
                    l-2.4,2.75v3.21l-2.65,2.75l-0.92,3.67l-5.04,3.21c0,0-2.17,4.59-2,5.96c0.17,1.38-0.17,2.75,0,4.59c0.17,1.83,0.17,1.83,0.17,1.83
                    l-4.59,4.17l-1.38,3.63l-3.27,2.29v4.59l-3.61,0.92l-2.65,2.29v3.21L167.81,621.27z"/>
                <path id="zona1" d="M351.21,307.11l2.75-2.29h2.29h2.75h2.29l2.75,4.59h3.67h4.13h4.59l2.29,2.29l3.67,2.75h2.29h2.65l2.39-2.29
                    h3.21h2.75l3.21-2.52l2.75-2.52l2.75,2.52v4.82l4.59,3.57h5.04h3.67h4.59c0,0,1.38,0.1,2.29,2.85c0.92,2.75,3.67,4.03,3.67,4.03
                    h2.29h3.67h4.59l5.35,1.93h2.9h2.29h3.67h3.21h3.21c0,0,0.92-0.92,2.29,0s1.38,0.92,1.38,0.92s-2.29,0.46,0,2.29
                    c2.29,1.83,2.29,1.83,2.29,1.83v3.12h3.21v2.39l5.04,2.66v2.39v7.24h3.21h4.59c0,0,3.67,0.55,3.67,1.93s1.83,2.75,1.83,2.75
                    l3.21,5.04v4.13l1.83,3.21h2.75l2.75,1.83l1.83-2.75l2.29-1.38l2.29,1.38l3.21-0.46l2.29,0.92h3.21l2.29-0.46l1.83,2.75l-3.21,2.29
                    l-0.46,2.29l1.83,4.74l1.83,3.06l-4.59,3.9l-0.92,3.85l-1.83,4.17l-2.75,1.87h-3.67l-2.29-1.87l-4.13-0.46l-3.67,2.33l-4.13-2.79
                    h-2.29h-2.29l0.46-3.26h-5.04l-3.21-3.85h-4.13h-2.75l-1.38-2.98l-3.67-3.97l-2.75,3.97l-2.29,2.98l-5.5,3.85c0,0,0.92-0.51-2.29,0
                    c-3.21,0.51-3.21,0.51-3.21,0.51l-4.28,2.75v2.79l-3.52,3.63l-2.75,2.75h-3.9v4.13l-5.27,3.58l0.46,2.84l-5.5,2.75H420l-3.21,2.52
                    l-4.59-2.52h-2.29l-3.21-0.46l-2.29-2.29h-4.13h-5.04l-4.59-0.92l-7.34,2.75l-0.92-2.29l-1.83-2.38l-0.92-4.04v-5.04l0.46-2.75
                    l-2.75-2.25l-3.21-4.17l-2.75-1.88l-2.75-3.85l-2.29-4.82l-3.21-2.14l-1.38,2.14l-4.13-2.14l-6.42,2.14v4.82v2.06v4.13l-4.13-0.92
                    l-1.83-1.42l-5.96,2.8h-2.62l-3.34-0.46l-2.8-2.34l-4.08,2.8l-2.29,3.25l-5.5,6.38h-2.75l-3.21-3.21v-3.17h-3.21v-3.25l1.83-2.8
                    h-3.67h-2.75h-2.29l-3.42,2.34l-3.46,0.92l-5.04,2.79l-2.75-6.05h-3.15v-3.85c0,0,1.31,1.15,3.15,0c1.83-1.15,3.67-2.98,3.67-2.98
                    l-0.92-3.97l-2.75-4.74l0.92-5.04l0.46-4.13v-3.1l-4.52-3.32l2.23-2.75v-2.29l1.38-2.85h2.75l0.46-4.03h2.29h2.29h2.91l3.51-0.92
                    l1.38-4.68h4.59l4.59-2.66v-2.39l0.92-4.49l1.38-2.75l0.46-2.85l-1.38-4.03l4.13-2.85l1.38-4.03l4.59-3.21l5.91-5.96v-3.67h2.8h3.34
                    l2.62,2.29l4.59,0.92h3.21L351.21,307.11z"/>
                <path id="zona1" d="M352.31,386.42v-3.85v-4.82l3.21-2.14h3.67l4.59,2.6l1.23-1.4l1.06-1.2l1.83,5.4l2.29,1.55l3.21,3.85l4.13,2.8
                    v3.25l2.29,3.17v3.21v7.71l5.04,3.76h3.11h1.94l3.21-3.76l1.83,3.76l2.29,4.36v3.9v3.67l-3.21,3.67l-1.38,3.21h-4.69l2.39-5.96
                    l-2.39-1.38l-3.11-1.38l-2.75-0.46l-7.34-0.46v3.21l-5.5,3.67l0.46,2.75l0.46,1.83l-1.38,4.59h-3.67h-4.13l-4.13,2.75h-4.59
                    l-2.29,4.13l-2.29,4.13v2.75l2.75,1.83l2.75,4.13v2.29l-0.46,3.67l0.92,3.21l2.75,2.75l-1.38,5.96v4.59l3.21,3.67l2.29,2.29
                    l5.5,18.8h-2.75h-4.13h-4.13l-2.75-2.29l-2.75,2.29h-3.67v4.13l-2.29,1.83h-4.13h-2.17l-6.14,2.29l-2.24,1.83l-5.5,1.83h-3.21h-4.13
                    h-3.21l-2.29,6.88v3.67l-2.75,2.29h-3.67h-6.42h-5.5l-4.13,1.83l-2.69,2.75v3.67l-4.65,4.13h-4.13l-3.21,1.83l-2.29,2.29l-6.88,6.42
                    v3.21l-5.5,1.83h-4.13l-2.75-2.29l-2.29-4.13l4.13-3.67l0.46-3.67l1.83-3.21v-3.67l-0.92-5.04l4.13-1.83l4.13-0.92l2.29-3.21v-2.29
                    l-3.21-1.38l-2.29-2.75l-2.29-2.29l0.46-3.67l1.83-3.21l-3.67-1.83v-2.29l-2.29-1.38l-1.83-5.96l-2.75-5.04v-4.13v-2.75v-4.59
                    l5.5-2.75l5.04-7.8l2.75-4.05l1.83-1.91v-5.96l2.29-2.29l-2.75-1.83l-4.13-0.46l-0.46-6.19l0.92-3.44l-0.92-4.13l2.75-0.92
                    l1.38-2.29l5.44-0.92h2.35l0.46-5.96c0,0-1.38-2.75,0-2.75s1.38,0,1.38,0l1.83-2.29l0.92-3.21c2.29-0.92,2.29-0.92,2.29-0.92
                    l2.29-3.21l1.83-2.06l2.82-3.9v-2.29l2.23-1.92h3.67v-4.96v-2.75l2.29-2.75v-3.63l1.38-2.33l2.29-3.72l2.54,1.88l2.96-1.88
                    l1.83-3.85l1.83,3.85h2.75l2.29,3.26l-0.92,2.79l2.29,4.09l1.38,2.29l2.75,2.75l1.38-2.75l2.29-6.38l2.75-1.42l4.13-1.38l3.62-1.38
                    l3.26,1.83l2.88-0.46l3.54-3.26h3.67l3.21,2.34h4.13"/>
                <path id="zona1" d="M419.02,415.68l-3.21,4.36v5.04h-3.67l-2.75,2.75v2.29v3.67l-3.67,1.83l2.75,2.75l1.38,4.13h2.52l3.44,5.04
                    c0,0,0.92,1.38,0,3.21c-0.92,1.83,0,8.71,0,8.71l3.21,3.67l2.75,3.21v3.75v6.3h3.67l5.04,3.26l6.88,2.75h3.67l4.89,2.29l3.82-4.59
                    h3.67l1.83-3.72h2.29l8.25-2.7l6.88-1.38h5.5l7.34,4.08l7.8,2.34h4.59l4.13,1.83l4.13,0.46h2.75l5.04,1.38h4.59l3.67,2.29v3.67
                    c0,0,1.83,0,3.21,0s5.5,4.13,5.5,4.13l3.67,3.21l2.75,1.84h2.29l2.29,3.21l3.21-2.75l20.18-133.91h-5.04l-2.75,4.13l-1.83,8.16
                    l-2.75,3.92l-0.92,3.29h-4.59l-2.75-3.29l-3.21,3.29h-2.29h-3.21h-3.21l-3.67-3.29h-5.96h-4.59l-4.13,3.29l-1.83,3.85l-2.75,6.05
                    h-4.13l-4.13-3.25h-4.13l-3.67,3.25l-2.75-3.25h-5.5v-4.59l-4.13,1.79l-6.42-3.85h-4.13l-2.75-3.29l-3.21-3.67l-1.38,3.67
                    l-2.29,3.29l-5.5,3.85h-5.04l-4.74,4.17l-3.52,5.96l-1.38,2.29h-4.13l-1.83,4.13l-4.13,3.58l-1.38,2.38l-1.38,2.75l-4.13-0.46
                    L419.02,415.68z"/>
                </svg>