<?xml version="1.0" encoding="utf-8"?>
<!-- Generator: Adobe Illustrator 28.3.0, SVG Export Plug-In . SVG Version: 6.00 Build 0)  -->
<svg version="1.1" id="Capa_1" xmlns="http://www.w3.org/2000/svg" xmlns:xlink="http://www.w3.org/1999/xlink" x="0px" y="0px"
	 viewBox="0 0 581.3 568" style="enable-background:new 0 0 581.3 568;" xml:space="preserve">
<style type="text/css">
	.st0{fill:#4FAE32;stroke:#000000;stroke-miterlimit:10;}
	.st1{fill:#FFFFFF;stroke:#000000;stroke-miterlimit:10;}
</style>
<path class="st0" d="M105.6,41.2l4.6,4.1l3.7,3.7l-1.8,4.1v4.1l1.8,2.3v4.6l-4.1,3.2v6l-4.1,7.3l4.1,2.3v4.6v4.1h-4.1l-2.8,3.7
	c0,0,0.9,1.8,0,4.1s0,9.6,0,9.6l1.8,4.1l-5.5,2.3v3.7l3.7,3.7l-3.7,2.8c0,0-0.5,3.7,0,3.7s-0.2,4.6-0.2,4.6h-3.5l-3.7,1.8v4.1
	l-2.3,5v3.7l-4.6,2.3v3.7v3.2v5.5v2.8c0,0,1.8,0.9,0,2.3c-1.8,1.4-3.2,6.4-3.2,6.4l3.2,3.2l3.7,3.2l-0.5,6l-6.4,6l3.2,4.6l2.3,3.2
	v4.6l-3.7,2.3l1.4,4.6v5l-3.2,4.1v4.6v3.2l4.6,2.3l0.9-5l7.8,0.9l4.6,0.9l3.7,3.2h3.7l5-3.7l6.9,0.9l2.8,0.5l7.3,2.3h4.1v3.2
	l3.7,2.8l4.1,1.8v-5.5v-4.1v-3.2v-2.3l-4.6-4.6l2.8-4.6l-0.5-2.3l2.3-6.9v-7.3v-3.2l4.6-0.9l3.7-3.2v-8.2v-2.3v-3.7v-2.8v-5.5
	l4.1-4.1l2.3-0.9V161l2.8-3.7l2.8-2.8l2.3-0.9l-2.3-3.7l2.3-1.4V143l3.2-2.8l2.3-4.1v-2.3l-4.1-1.4v-3.7l4.1-0.9v-2.3V120
	c0,0-1.8-1.4,0-3.2s4.6-2.8,4.6-2.8v-4.1l3.7-3.7v-4.6l-5.5-6.9l-5-5.5l-2.8-2.8h-10.1l-4.1,1.4l-5.5,2.3l-4.1-4.6l0.5-7.8l1.4-4.6
	l4.6-2.8v-3.7l4.6-4.1l2.8-0.5l-0.5-3.7l1.4-5.5l-1.8-2.8l2.8-1.8l3.2-4.1l-0.5-5.5v-3.2l-2.3-5.5h-2.3l-2.3-3.7h-3.7H145h-3.7
	l-6,2.8l-1.8,4.6h-4.1c0,0-2.8-0.9-4.6,0s-1.8,0.9-1.8,0.9l-3.2,0.5l-3.7-2.3H112l-2.3,4.6L105.6,41.2z"/>
<path class="st0" d="M150.7,32.2l5.5,5.5l-2.8,1.8l2.8,2.3v3.7c0,0-3.2,2.8-2.8,4.1s-2.8,2.3-2.8,2.3v5v2.3v3.2v2.3L147,67
	c0,0-3.2-1.8-3.2,0s0,4.6,0,4.6l-3.7,3.7l-3.7,2.8v6.4v5h3.2l3.2,1.8h3.4l4.4-3.2l5.5,0.9l2.8,0.5h3.2l3.2,5v3.2l2.8,2.8l3.2,6
	l2.3,3.2l-3.2,3.7v3.7v2.3h-4.6l-0.5,4.1v3.2c0,0,1.4,0.5,0,2.3s-3.7,2.3-3.7,2.3l-1.4,2.8l3.2,1.8h2.8l-0.9,4.1l-2.8,2.3
	c-0.9,3.2-0.9,3.2-0.9,3.2l-2.3,5c-1.8,3.2,1.8,5,1.8,5l-2.3,1.8l-3.9,2.3v3.2h-2.5l-1.8,3.7h4.4h3.4h4.6h3.2h4.1l0.9-3.7l2.3-1.4
	l3.2,0.9l4.6-1.8l2.8,1.4l2.8,1.4v3.2h2.3v3.7v4.6l-3.2,4.1h3.2h4.1l2.3,3.2h2.3h2.3l3.7-2.3v2.3l2.3,2.3l1.8,3.2l5,3.2h6.4l3.7,2.3
	l3.2,1.8v2.8v3.2l5,2.8l3.2,2.8l4.1,2.8l2.3,6l2.8,3.7h2.3v4.6h4.1v-5c0,0,2.3-0.9,3.7-1.4s1.4-0.5,1.4-0.5l3.7-0.9l4.6-2.8l2.3,2.3
	l2.3-3.7l2.3-4.1v-2.8c0,0-4.1-1.8-3.2-3.7c0.9-1.8,0.9-1.8,0.9-1.8s-0.5-2.3,2.3-3.2s4.1-2.8,4.1-2.8l4.1-1.4v-4.1v-6.4V178v-2.3
	v-5.5h2.3h2.8l4.1-2.3l3.2-3.7l4.1-0.9v-3.7v-3.2l2.9-4.1v-2.8l-3.4-2.8l-2.3-4.1l-3.7-2.3l1.8-5l-4.1,0.9l-2.7,3.2v2.8l-3.7-5.5
	l-0.5-3.7l-3.2-0.5l-2.3-4.8l-2.8-2.1c0,0,2.8,0-0.9-2.3s-3.7-2.3-3.7-2.3l-2.8-1.4l-1.8-2.8v-2.3l-5-2.3l-2.8,1.8l-2.3,0.5
	l-3.2,2.3l-7.3-2.3l-2.8-2.8l-4.6-2.3l-3.2-1.4l-6.9-1.8h-2.3l-4.5-0.9V100v-4.1v-3.2v-5.5l-3.3-1.4l-4.1-1.8l-3.7-0.5l-3.7-6
	l0.5-3.2V72l-2.3-3.2l0.9-2.3l0.9-6.4h3.7l1.4-2.8l1.8-2.3l0.9-3.2h-3.7l-2.8-3.7l-0.5-2.8l0.9-2.8l1.4-3.2l0.9-4.6l-4.1-2.8h-2.8
	l1.4-3.7h2.3l-0.5-5h-2.3h-2.8l0.5-2.3l-4.6-3.2H191V20l-2.3,2.3l-3.2,1.4l-3.7,2.8l-3.2,1.8l-1.4,3.7h-4.6H168l-2.8,4.1l-3.7-4.1
	h-4.6H153L150.7,32.2L150.7,32.2z"/>
<path class="st0" d="M147.9,167.6v2.3v2.8v2.3l-2.8,2.3l3.4,2.8v4.1c0,0-4.4-1.3-3.4,1.9s-0.1,6.4-0.1,6.4s0.3,1.4,0,2.3
	c-0.3,0.9-3.1,0-3.1,0l-5.5,2.8v4.6c0,0-0.5,0.9,0,2.3c0.5,1.4-0.2,5-0.2,5s-0.7,0.9,0,2.8s-0.3,3.2-0.3,3.2l2.3,3.7l-2.3,5l2.3,2.3
	v3.7c0,0-4.2,0.5-2.3,2.8s1.9,2.3,1.9,2.3l0.9,6.4l0.5,3.2l2.3,2.3h2.3l1.9,1.8h2.8l3.7-3.7l3.2,3.7v6l2.3,2.8h2.3l2.3,2.3
	c0,0-1.8,1.8,0,3.2s3.7,5,3.7,5h-3l-2.8,5h2.8h2.8l1.8-2.3l2.3-1.8l1.8,4.1l3.7-4.6V265l-2.3-3.2l2.3-0.9h3.7l4.6,2.8l2.3,1.4
	l2.8-2.8v-3.2l5-1.4h2.3l2.8,0.9c0,0,2.8,0,2.3,1.4s-0.5,1.4-0.5,1.4l0.5,1.4l3.2,1.4l4.1,0.5l3.2-5v-2.8l2.8-0.5l3.2-3.7l1.8-6
	l2.3-0.5l3.7-1.4l3.2-2.3v-4.1v-3.7V230l2.8,0.5l4.1-1.4v-2.3l3.7-2.3l3.7-3.2h4.1v-5.5l-3.7-2.3l-3.2-2.8V208l-5.5-4.1l-2.8-1.4
	l-3.2-1.8l-1.4-4.1l-0.9-3.2l-2.8-1.8l-3.7-0.5l-3.2-0.5l-2.3-1.4l-2.3-3.2H208l-2.8-1.9v-3.2l-2.3-3.2l-2.3,1.4l-2.3,0.9l-3.7,0.9
	l-0.5-2.3h-3h-3.4l-2.8-1.4l2.3-2.3l1.4-2.3l-1.4-3.7l3.9-1.4v-3.2l-2-4.1H186h-4.6h-5.5l-4.1,3.2l-0.9,2.3l-3.7-0.5H163l-3.2,0.9
	l-4.6-2.3L147.9,167.6z"/>
<path class="st0" d="M284.6,133.6l5.5-1.8l2.5-3.7V124v-2.8h2.6l2.8-3.7h3.7v-2.3h4.6h2.3l2.3,1.8l2.3-1.8v-4.6v-2.8H310l-1.4-4.6
	l-1.4-2.8l3.2-2.3L313,96l7.8-2.3l5-2.3l4.6-3.7h3.7l5-3.7l3.2-2.3l2.8,3.7v6.9v2.8l4.1,3.7l1.8,4.1l5.5,0.9l2.8-0.5l2.3,4.4v-2.5h6
	l3.2,2.5l2.8,3.9l2.3,0.9l3.2,2.8l2.3-2.8l2.8-2.8l2.8-2.1c0,0,1.4,3.4,0,4.8s-2.8-1.8-1.4,1.4s1.4,3.2,1.4,3.2l4.6,3.7l3.7,2.8
	l4.1,1.8l4.1,2.8l2.3,3.7l-2.8,1.8l-1.4,6.4v4.1l-5,5.5l-0.9,4.1L392,156h-4.6l-4.1,4.1v2.8l1.4,3.7l-0.5,2.3l-5,3.7h-3.7l-3.2-2.3
	l-4.1,2.3H365l-3.2,2.8h-2.3h-4.6l-1.8,2.8l-4.1,3.7l-5.5,3.7l-0.5,2.3h-3.2l-1.4-3.7c0,0-2.8-0.9-2.8,0.5s-3.2,3.2-3.2,3.2
	l-1.8,3.7l-2.8-2.3l-0.9,2.3h-3.7H320h-3.2l-0.9,4.1h-2.3l-3.7,2.3l-2.3-6.4l-2.3,1.8l-5,4.6l-2.8-1.8l-4.9-0.9V193h-2.5l-1.8-2.3
	l-3.7-0.9h-6.4l2.2-3.2l-2.2-1.4h-3.7l-2.8-3.7v-3.2v-5v-3.2v-2.3l4.1-0.5l2.4,2.8l5-0.9l2.3-2.8v-2.3l2.8-2.3l4.3-3.7v-4.6l2.6-3.7
	l-2.6-1.8l-3.4-2.8l-2.3-1.8l-2.8-0.5l-0.5-5L284.6,133.6z"/>
<path class="st0" d="M319.6,188.4h0.3c0.6,0,1.2-0.5,1.2-1.2v-1.1c0-0.3,0.1-0.6,0.3-0.8l2.9-2.9c0.5-0.5,1.2-0.5,1.7,0l2.1,2.2
	c0.2,0.2,0.3,0.5,0.3,0.8l0,0c0,1.1,1.3,1.6,2,0.8l1.1-1.2l0.1-0.1l1.9-2.8c0.2-0.3,0.6-0.5,1-0.5h2.5c0.4,0,0.7-0.2,0.9-0.4
	l2.8-3.6c0.1-0.1,0.1-0.2,0.2-0.3l1.5-3.5c0.2-0.4,0.6-0.7,1.1-0.7h1.5h5h4.1c0.5,0,1-0.4,1.1-0.9c0.2-0.9,0.8-2.3,1.6-2.6
	c1-0.3,2.8-0.2,3.6-0.1c0.3,0,0.6,0.2,0.8,0.4l2.1,2.6c0.2,0.3,0.6,0.4,0.9,0.4h2c0.4,0,0.8-0.2,1-0.6l1.8-2.9
	c0.1-0.1,0.2-0.2,0.3-0.3l2.6-2.1c0.3-0.2,0.4-0.6,0.4-0.9v-3.6c0-0.3-0.1-0.5-0.3-0.8l-1.4-1.7c-0.3-0.4-0.4-1,0-1.4l1.4-2
	c0.2-0.3,0.6-0.5,1-0.5h4.4c0.3,0,0.6-0.1,0.8-0.3l1.6-1.6c0.2-0.2,0.5-0.3,0.8-0.3h1.1c0.6,0,1.2-0.5,1.2-1.2v-3.4
	c0-0.3,0.1-0.5,0.3-0.8l2-2.4c0,0,0-0.1,0.1-0.1l2.2-2.2c0-0.1,0.1-0.1,0.1-0.1l0.1-0.1c0.7-0.9,2.1-0.5,2.1,0.7v3.2
	c0,0.3,0.1,0.5,0.3,0.8l1.9,2.3c0.1,0.1,0.2,0.2,0.3,0.2l4.4,2.6l4.3,2.6c0.2,0.1,0.4,0.2,0.6,0.2h2.1c0.2,0,0.4,0.1,0.6,0.1
	c0.6,0.3,1.9,1.1,2.9,2.1c1.2,1.2,2.1,5.1,2.3,5.8c0,0.1,0,0.2,0,0.2v2.6v2.8v3v2.6c0,0.2,0.1,0.5,0.2,0.6l2.5,3.8
	c0,0,0,0.1,0.1,0.1l2.6,5.2c0.1,0.2,0.1,0.3,0.1,0.5v1.3c0,0.6,0.5,1.2,1.2,1.2h1.1h1.1c0.6,0,1.2,0.5,1.2,1.2v2v2.3v5v3.9
	c0,0.6,0.5,1.2,1.2,1.2h0.4c0.6,0,1.2,0.5,1.2,1.2v1.8c0,0.6,0.5,1.2,1.2,1.2h0.4c0.6,0,1.2,0.5,1.2,1.2v2.6c0,0.4,0.2,0.7,0.6,0.9
	c0.3,0.2,0.5,0.6-0.6,1.7l-1.6,1.6c-0.1,0.1-0.3,0.2-0.5,0.3l-4.6,1.2c-0.1,0-0.2,0.1-0.3,0.1l-3.1,1.9c-0.3,0.2-0.5,0.4-0.5,0.7
	l-0.8,3.6l-0.9,3.6v0.1l-1.8,5.3c0,0.1-0.1,0.2-0.1,0.3l-3,4.7c-0.1,0.1-0.2,0.2-0.3,0.3c-0.4,0.3-1.3,1.1-1.7,2.2
	c-0.4,1.3-1.2,5-1.4,5.5v0.1l-0.3,3c-0.1,0.6-0.6,1-1.2,1H400h-5.7c-0.1,0-0.3,0-0.4-0.1l-6.2-2.5c-0.3-0.1-0.5-0.3-0.6-0.6
	l-1.2-2.7v-0.1l-1-3c-0.2-0.6-0.9-1-1.5-0.7l-2.6,0.9c-0.2,0.1-0.5,0.2-0.6,0.5l-1.4,2c-0.2,0.2-0.4,0.4-0.7,0.5l-5.6,1.2
	c-0.2,0-0.5,0-0.7-0.1l-1.2-0.5c-0.4-0.2-0.9-0.1-1.3,0.3l-1.2,1.2c-0.3,0.3-0.9,0.4-1.3,0.2l-3.3-1.5c-0.1,0-0.1-0.1-0.2-0.1
	l-2.9-2.1c-0.1-0.1-0.2-0.1-0.4-0.2l-4.5-1.2c-0.2-0.1-0.4-0.1-0.6,0l-2.7,0.8c-0.1,0-0.3,0-0.5,0l-3.4-0.4c-0.3,0-0.6-0.2-0.8-0.4
	l-2.3-2.7c-0.1-0.1-0.2-0.2-0.2-0.4l-0.5-1.6c-0.2-0.5-0.7-0.9-1.3-0.8l-2.6,0.3h-0.1h-2c-0.1,0-0.2,0-0.4,0.1l-2.6,0.9l-3.1,1
	c-0.6,0.2-1.2-0.1-1.5-0.7l-0.3-0.7c-0.1-0.4-0.5-0.6-0.9-0.7l-4-0.8l-2.4-0.4c-0.2,0-0.5-0.1-0.6-0.3l-1.2-1.2
	c-0.2-0.2-0.5-0.3-0.8-0.3h-1.5c-0.6,0-1.2-0.5-1.2-1.2V231v-3c0-0.2,0-0.3,0.1-0.5l1.5-3.3c0.2-0.4,0.1-0.8-0.1-1.1l-1.2-1.8
	c-0.2-0.3-0.5-0.5-0.8-0.5l-4-0.7c-0.6-0.1-1-0.6-1-1.2v-0.7c0-0.4,0.2-0.8,0.5-1l3.2-2.1c0.3-0.2,0.4-0.4,0.5-0.8l0.2-0.9
	c0.1-0.5,0.6-0.9,1.1-0.9h1.1c0.6,0,1.2-0.5,1.2-1.2v-2.4c0-0.6,0.4-1.1,1-1.2l1.1-0.2c0.4-0.1,0.7-0.3,0.9-0.7l1.5-3.2
	c0.3-0.6,0-1.4-0.7-1.6l-3-0.9c-0.2-0.1-0.4-0.2-0.5-0.3l-2.6-2.6c-0.5-0.5-0.5-1.2,0-1.7l1-0.9c0.2-0.2,0.5-0.3,0.8-0.3h2
	c0.6,0,1.2-0.5,1.2-1.2v-0.8c0-0.6-0.4-1.1-1-1.2l-1.9-0.2c-0.4,0-0.8-0.3-1-0.8l-0.5-1.4C318.2,189.2,318.8,188.4,319.6,188.4z"/>
<path class="st0" d="M267.3,180.7h3.2h3.2v3.5h3.2h3.2l3.2,3.4h3l2.5,2.8h2.8h3.2h2.8v-2.8l2.3,0.5l1.8,2.3h2.3v3.2h2.3v-4.1h3.2
	h2.3v-5.2l4.1,2.9h3.2l3.7-2.9l2.7,2.9v1.8v2.3l-2.2,2.3l2.2,4l2.8,2.4l-2.8,2.3l-2.2,3.7l-0.9,3.7l-1.8,3.2h-3.7l0.9,3.2l2.8,2.3
	l1.8,2.8l0.9,3.2l-2.8,2.3l-0.9,3.7h-2.3l-0.9,2.8l-0.9,3.2l-2.8,3.7l-2.3,2.3l-4.6,2.3l-1.8,6.7h-2.8v5.2l1.4,3.2l-2.3,2.3
	l-2.5,4.1v2.3h-3h-3.7l-0.5,5.5l-6.9,2.3h-5.5v-3.2l-6.4-1.4l-4.6-0.9l-3.2-1.4l-2.8,0.9l-3.2-0.5l-2.8-0.5c0,0,0,1.4,0,2.8
	s0,4.1,0,4.1l-1.8,2.3h-2.3h-3.7v5.5l-2.3,3.7v2.3l-2.1,2v3.7h-3.2h-3.5V293v-2.8l-3.4,1.8v-3.2l-2.8-3.7l-2.8-0.9l-3.7-0.9V281
	h-3.2l-3.7,1.8v-3.7c0,0-3.7-2.3,0-2.3s3.7,0,3.7,0l2.8-0.9l0.9-5.5l2.8-2.8l3.2-1.8l-0.5-3.2l-1.4-2.8l3.2-2.8c0,0,4.9-5.5,4.7-3.2
	s4-0.5,4-0.5l1.8-2.5l0.5-2.1l0.5-2.3h2.8v-3.2l1.8-3.2v-2.1l0.5-4.8v-3.2l0.9-2.8l2.3-1.8l4.1-1.4l-1.4-2.8l2.8-4.1l-1.4-2.8
	L253,211l4.1-1.8v-4.1v-3.2l-1.4-4.7l1.8-4l2.3-2.3h2.8l2.8-3.7l1.8-3.4L267.3,180.7L267.3,180.7z"/>
<path class="st0" d="M190.1,256.8l4.6,2.3h3.7l3.2-1.1v-5l3.7-2.9V248l2.9-2.3l2.1-2.8l2.3-2.3h4.6l2.3-5.3l-2.8-2.1l2.8-1.8v-2.3
	v-3.7h4.1h3.2v-4.1l4.6-2.3l4.6-4.6h2.9h2.6v-3.7h4.1l2.3-2.8h4.1l3.2-2.3v4.1v3.2l3.7,0.5v3.7v3.7l-3.2,2.3l-2.3,0.5l-2.3,5.5
	c0,0,0-0.9,0,3.2s0,4.1,0,4.1l-1.4,5l-1.4,3.2l-2.3,0.9l-3.2,4.4l-0.5,2.9h-3.5l-5.5,2.4l-2,3.7v4.1h-2.8c0,0,0.5,2.3-0.5,3.7
	c-0.9,1.4-3.7,5-3.7,5v2.8l-3.2,2.8l-1.4,2.8l2.3,2.3l2.3-3.7l1.8,3.7l3.7,2.3h3.4v4.6l2.1,3.7l0.9-3.7l2.4,1.8v6.4h-2.4l-3.1,4.1
	v4.3v3.5h3.1v3.7h-3.1H231l-1.8,2.8h-2.3l-2.3,2.8h-2.3l-2.8-1.8v4.6h-2.8h-5.5h-3h-2.5v3.7h-3.2H198h-2.3l-2.8-4.1l-2.8-2.3
	l-2.3-1.8l-2.3-0.5V311v-2.3l-3.2-2.6h-4.7l-2.2-2l-3.2-0.5v-2.8L167,299l-2.6,1.8l-3.7,0.5h-2.3V299l4.6-3.7l-1.4-2.3h3.2l2.1-5.5
	v-2.8l-2.1-1.8v-2.3l2.1-1.4l2.5-4.1l-2.5-2.8v-4.6l-3.5-2.3l0.5-2.3v-2.8l-1.8-3.2l4.9-1.4l2.5-0.9l2.8,4.1l5.4-2.3l2.4-3.8h2.3
	h2.8h2.3L190.1,256.8z"/>
<path class="st0" d="M80.7,226.9h2l3.2-3.2h3.2h2.3h2.3l5,6l6-3l4.1-3l2.3,3h3.7h6h4.1c0,0-0.2-4.4,3.5-3s2.6,6,2.6,6l0.2,2.8l3,2.8
	h2.4v3.2l2.2,2.1h2.3l2.3,3.9h2.8V242l4.1-1.6l1.8,3.9l2.8,5.5v6h5h2.3v4.6l2.8,2.8h-4.6l-0.5,3.7c-2.8,1.8-4.6,4.6-4.6,4.6h-2.8
	h-3.2l-0.9-2.3H146h-2.8l2.3,4.6v3.2l-3.2,2.3h-2.8l-3.1,2.8v-2.8h-2.9h-2.7v2.8l-2.6,4.1h-3l-2.6,3.7v2.3l-2,2.8l-0.9,5v2.8h2.9
	l-2,3.8l-0.9,2.6l-1.8,3.2l-0.5,3.2h-4.1c0,0-1.8,0-3.2,0s-3.2,0-3.2,0l-0.9,2.8h-3.7H100l-2.8-3.2l-1.8,3.2h-3.2h-5l-2.8,2.3
	l-1.4,3.2l-2.5,3.2h-2.6v3.7v2.3H74l-2.3-2.8c0,0-1.4-0.5-3.2-0.5s-4.1,3.2-4.1,3.2h-3.2v-3.7l-2.3-0.5l-2.3-1.4v-2.8l1.8-2.8
	l3.2-2.3l2.8-2.3l-2.3-4.1l-3.2-1.8l-0.9-4.9l1.8-2l-3.2-4.6l-2.3-3.2v-3.7l5.5-1.8l2.3,1.8l3.2-3.2l4.1-2.3l0.9-4.6l3.2-0.9
	l2.3-0.9l2.3-2.9l-1.8-4.9l-1.4-4.6l-3.7-1.4l-1.4-3.2l4.1-1.8l-0.5-2.8l0.5-3.7l4.1-2.4h2.6l-2.6-3.6l0.5-2.8l2.1-3.7l-3-2.9
	l-1.4-3.9l2.3-2.8l2.1-4.1L80.7,226.9L80.7,226.9z"/>
<path class="st0" d="M116.9,288.3l4.1-4.1l2.1-2.3v-5h2.6l5.5,2.3l4-2.3h3.2v-2.8v-5h3.7h4.6h5.5h2.8l2.8-1.9l4.1-2.7l3.7,2.7h3.7
	l4.1,7.4l-2.5,1.8l-1.7,5.5l-0.5,6.4l-4.1,4.6l-0.5,3.2l-2.4,4.6h2.8h2.8l3.5-3.2l2.5,1.4v4.1h2.3h5.9l2.9,2c0,0,2.3-3.5,2.3,0
	s0,5.8,0,5.8v3.2l4.6,2.8h3.7v3.2l2.8,1.9c4.6,1.8,4.6,1.8,4.6,1.8l3.2,2.8h-2.8l-1.8,3.7c0,0-0.5,0.9-0.5,2.3s0,1.4,0,1.4L199,336
	l0.5,4.2h-2.8h-2.8h-3.2h-4.1l-5.1-1.8v6.4l-3.6,2.3l-1.4,2.3l-5.7,6.9l-2.1,4.6l-1.8,3.7l-3.2,5l-1.9,3.7l-3.1,7.3l-2.8,4.1l-3.7,5
	v2.8l-3.2-2.3h-3.7l-3.7,2.3l-2.8-4.6c0,0-1.8,0.5-3.2,0s-1.4-0.5-1.4-0.5h-3.1l-2.4-0.5l-0.5-3.7l-2.7-4.6l-2.6-2.8l2.6-2.8
	l-2.6-2.3l2.6-3.7h-2.6l-6.2-0.9l-5-0.5v-3.7v-2.8v-3.2l-2.3-1.8v-3.2v-6v-2.8v-4.6v-4.1l3.7-2.3l0.5-3v-6.6l1.8-2.8l2.3-1.4
	l0.5-3.2l-3.7,0.9l-2.3,0.9l0.5-3.2l1.4-4.1l4.1-4l-1.4-3.4l-1.4-6.9l-0.5-3.7L116.9,288.3z"/>
<path class="st0" d="M58.1,326.9h4.1H65h5h2.3l5.8-5.5l1.5-2.2l1.8-2.8h3.2H87h2.3l2.8-2.8h3.7h3.9h3.9h3.7l2.3-2.3h2.8l2.8,2.8
	l4.6-2.8v4.1l-3.2,3.7l0.9,5l-1.8,2.8l-2.3,6.3l-0.9,4.2l-0.5,3.2v2.3l-0.9,2.8l-1.4,3.7l4.1,3.2l1.8,2.8l-0.9,3.7v2.8l2.8,1.8h4.1
	h4.4v3.7h2.6l-2.6,2.8v4.6h2.6l2.7,4.1v2.3v3.2h2.9h3.6l5,2.3h2.3v3.2c0,0-1.8-3.2-2.3,0s-0.5,3.2-0.5,3.2l-3.7,2.8l-1.8,2.8
	l-2.7,2.3v2.3l-2.9,3.2l-0.5,2.3l-2.2,4.6l-2.6-3.2l-2.1,0.5l-4.6,2.8h-2.8h-4.1l-3.2,3.2l0.9,3.7l-0.5,2.3h-3.2H104l-2.5,5.5h-1.8
	l-2.5-2.3l-3.7,2.3h-2.3H88l-0.9-2.8l-2.3-0.9l-1.4-2.3l-5.2-2.3l-2.6-1.4l-2.8-1.8l-4.1-1.8l-2.3-0.9l-2.8-1.8V408l-3.2-1.8h-2.3
	h-4.6h-4.6l-4.6,3.7l-4.6,1.4l-4.6,0.5v-2.3l-4.1-3.7l2.8-2.8l0.9-2.8l-3.7-2.3l4.6-1.8l2.8-0.9l3.2-0.5l2.8-2.3v-4.6v-2.3v-2.3
	l3.2-0.9l0.5-2.8v-5l-0.5-2.8v-2.3l1.8-3.7l2.7-0.5l3.7-2.8l2.3,0.5l-2.3-4.1l1.8-5.5l0.5-3.7l2.8-2.8l-2.8-3.2l-1.4-2.3l0.5-3.7
	v-2.8l-2.3-1.9l-1.4-4L58.1,326.9z"/>
<path class="st0" d="M201.9,333.9l2.5,4.7l2.3,2.3v3.2v4.1l-2.4,2.8h-2.4v5.5v5.5l-3,6.4h3l0.9,5.5l-0.9,3.2h4.8v4.6l2.8,1.8
	l4.3-4.6l2.1-2.3l6.4,2.8l2.8-0.5c0,0-0.9,3.7,0,4.6s-2.3,4.6-2.3,4.6l-0.5,4.6l2.9,3.2l-3.8,5h3.8v2.8l-2.9,3.2l2.9,3.2l2.1,2.3
	v2.3v2.3l-3.2,3.2l-0.9,5l-4.2,3.2v4.1v4.6c0,0,0.3,3.7,0,5s0,4.6,0,4.6l-5.2,3.7v6h-4.3l-4.6-2.8l-6-0.5l-2.8-3.7v-2.3l-5.5,3.2v6
	l-3.2,2.3v2.3v3.2l-4.2,2.3v3.7v5v3.7l-2.6,2.8v2.8c0,0,1.6,0.9,2.6,1.8s0,5,0,5l1.9,4.1l-1.9,3.2v5.5c0,0-3.1,1.4-2.6,2.8
	s-0.1,3.2-0.1,3.2l-2.2,1.8l-2.8,2.8l-2.9,5.5v3.2l-3,5.5l-2.8,4.1v2.8h-3.3l-2.2,5l-2.8,2.3v3.7v3.7H154v-5.5v-2.8v-4.6l3.2-3.7
	l2.3-4.1l-2.8-4.1l-2.8-0.5l-3.2,0.9l-2.3,1.4h-2.3l-2.8-1.8l-2.2-2.3l-2.4-1.4l-2.8-1.4l-3.1-2.3v-5l4-2.3l-1.8-4.1l1.8-2.3
	l2.3-4.6v-3.7l2-3.7l-4.2-0.9l-0.5-2.8l1.8-6.4l-0.9-2.3l1.4-3.2l-2.3-1.4l-3.6-1.4l2.2-2.3l1.8-2.8l2.3-2.3l2-6l2.6-2.8l3.2-0.5
	l1.4-2.8l1.4-4.1l-0.5-3.7l-1.4-3.2v-6v-3.2l-6.8-2.8l-2.9-4.6v-5l-0.9-4.6l-4.5-1.4l-5.5-1.8l2.7-6l0.5-5.5l2.4-2.3l2.7-1.8h2.8
	l2.9-4.6l2.2-2.3l2.8-2.3l2.3-0.9c0,0,0.9-0.9,2.3-0.9c1.4,0,3.2-1.4,3.2-1.4l2.3-2.8l1.8-4.1l5.4-6l1.9-6l2.3-5.5l4.9-8.2l4.8-6
	l2.2-3.7l0.9-4.1l2.6-2.8v-3.8l5.1,2.8l5,0.5l4.1-1.4L201.9,333.9z"/>
<path class="st0" d="M222.7,319.7v2.3v2.2l2.3,2.8c0,0,0-0.9,2.8,0s3.7,2.8,3.7,2.8l2.8,2.8v3.6l3.4,4.7v2.7h-4.3l-0.9,2.8l0.9,3.7
	l1.4,3.7v5l-1.8,4.1v3.7l-2.7,5l-2.4,4.6l-0.9,3.2l-2.3,4.6l-1.8-3.2l-5.2-1.4h-5.2l-0.3,2.3l-3.6,2.3l-3.2-3.7l-2.8-0.5v-3.7
	l-2.1-2.8l-3.4-3.7l3.4-2.3v-3.7v-5v-3.2v-3.7h3h3.2l0.5-4.1l-0.5-2.3l-3.2-5.5l-3-3.8v-3.6v-4.1l4.4-3.7l4.1-2.7h3.1l2.9-2.3h2.4
	L222.7,319.7L222.7,319.7z"/>
<path class="st0" d="M152.8,549.3l3.6-2.3h1.9h3.2l4-2.8h3.4v-5l3.2-3.2l4-1.8l1.5-5h3.2l3.7-3.2h2.8h2.3l3.2-2.8V520l2.1-3.7V514
	h-2.5l-1.4-3.2l3.9-1.8h3.4l1.9-4.6l2.7-2.8l3.8-4.6l5.2-4.1v-4.1l2.9-4.6l1.9-3.2v-2.8h4.1h3.7h2.8h4.7h4.4v-3.7l5-1.8V469v-2.3
	l2.3-2.8v-3.7V457v-2.8h4.6l3.7-3.2v-4l-2.3-2.8l-4.1-2.8l0.9-4.6l0.9-3.7h-3.2V431l-0.9-2.8h-3.7v-4.6l0.5-2.8l-1.8-4.6l-2.3-2.8
	l2.3-3.2l3.2-6.9l2.8-3.2l2.8-4.6l5-3.7v-3.7l1.8-5V381l-3.2-1.8h-2.8l-0.5-2.3l0.5-4.1l0.9-2.8l0.5-2.3v-2.8l2.3-1.8l2.3-1.8h3.1
	h1.9v-4.1v-4.6h3.2l2.8-5.5l3.7-3.7v-2.5l4.6-3v-3.2h2.7l2.8-1.9v-4.5c0,0-2.8-0.9,0-2.8s2.8-1.8,2.8-1.8v-2.8v-2.2l1.8-2.3h-4.1
	l-2.8-3.7L273,314l1.8-5.3l3.2-2.1v-4.9c-1.8-2.9-1.8-8-1.8-8l1.4-7.8v-2.8l-4.5-2.8l2.7-2.8l-0.5-4.2h3.2l0.9-3.1l-3.2-4.1H273
	l-4.6-2.4h-3.2H262h-2.8l-2.4,1.9v5l-2.7,2.7h-3.2l-3.2,1.9l-0.5,3.2l-1.8,2.8l-2.3,4.6l2.8,1.8l-0.9,3.7l-3.7-0.9l-2.3,1.8
	l-4.6,0.5l1.4,4.1h-4v4.5v4.2v3h2.1l-5.5,3.9h-2.3H223h-5v2.8v5.5l3.2,3.7l3.7,1.8h2.8l0.5,6.3l1.4,2.8l2.4,5.3h-4.7v4.8l2.3,3.2
	l0.5,6.4l-1.4,2.8l-0.9,4.1c0,0,0.5,3.7-0.5,5c-0.9,1.4-4.6,5.5-4.6,5.5c-1.8,3.2-4.6,8.2-4.6,8.2v4.1l-1.3,5.5v2.8l1.3,3.2
	l-3.2,3.2l3.2,1.8c0,0-1.8,0.9,0,2.3s-1.3,4.6-1.3,4.6l5.4,2.3l0.9,2.8l-5,1.8v2.8v2.8l-1.3,4.1l-4.8,1.8v4.6v6v2.3v3.2l-2.6,3.2
	l-0.5,3.7l-2.1,2.8l2.1,3.2l-2.1,0.5l-4.3-2.3l-6-2.3l-4.6-2.8l-3.2-2.3l-2.8-0.9l-0.9,4.1l-4.1,6.4l0.5,3.2v5l-3.2,1.8l-1.9,4.1
	v3.2v2.3v2.3l-2.2,2.3l2.2,2.3v2.8v4.1l2.9,3.7l-0.5,3.7l-2.4,2.8v3.2l-2.6,2.8l-0.9,3.7l-5,3.2c0,0-2.2,4.6-2,6s-0.2,2.8,0,4.6
	s0.2,1.8,0.2,1.8l-4.6,4.2l-1.4,3.6l-3.3,2.3v4.6l-3.6,0.9l-2.6,2.3v3.2L152.8,549.3z"/>
<path class="st0" d="M337.2,233.1l2.8-2.3h2.3h2.8h2.3l2.8,4.6h3.7h4.1h4.6l2.3,2.3l3.7,2.8h2.3h2.6l2.4-2.3h3.2h2.8l3.2-2.5
	l2.8-2.5l2.8,2.5v4.8l4.6,3.6h5h3.7h4.6c0,0,1.4,0.1,2.3,2.9c0.9,2.8,3.7,4,3.7,4h2.3h3.7h4.6l5.4,1.9h2.9h2.3h3.7h3.2h3.2
	c0,0,0.9-0.9,2.3,0s1.4,0.9,1.4,0.9s-2.3,0.5,0,2.3c2.3,1.8,2.3,1.8,2.3,1.8v3.1h3.2v2.4l5,2.7v2.4v7.2h3.2h4.6c0,0,3.7,0.5,3.7,1.9
	s1.8,2.8,1.8,2.8l3.2,5v4.1l1.8,3.2h2.8l2.8,1.8l1.8-2.8l2.3-1.4l2.3,1.4l3.2-0.5l2.3,0.9h3.2l2.3-0.5l1.8,2.8l-3.2,2.3l-0.5,2.3
	l1.8,4.7l1.8,3.1l-4.6,3.9l-0.9,3.9l-1.8,4.2l-2.8,1.9h-3.7l-2.3-1.9l-4.1-0.5l-3.7,2.3l-4.1-2.8h-2.3h-2.3l0.5-3.3h-5l-3.2-3.9
	h-4.1h-2.8l-1.4-3l-3.7-4l-2.8,4l-2.3,3l-5.5,3.9c0,0,0.9-0.5-2.3,0c-3.2,0.5-3.2,0.5-3.2,0.5l-4.3,2.8v2.8l-3.5,3.6l-2.8,2.8h-3.9
	v4.1l-5.3,3.6l0.5,2.8l-5.5,2.8H406l-3.2,2.5l-4.6-2.5h-2.3l-3.2-0.5l-2.3-2.3h-4.1h-5l-4.6-0.9l-7.3,2.8l-0.9-2.3l-1.8-2.4l-0.9-4
	v-5l0.5-2.8l-2.8-2.2l-3.2-4.2l-2.8-1.9l-2.8-3.9l-2.3-4.8l-3.2-2.1l-1.4,2.1l-4.1-2.1l-6.4,2.1v4.8v2.1v4.1l-4.1-0.9l-1.8-1.4
	l-6,2.8h-2.6l-3.3-0.5l-2.8-2.3l-4.1,2.8l-2.3,3.2l-5.5,6.4H302l-3.2-3.2v-3.2h-3.2v-3.2l1.8-2.8h-3.7h-2.8h-2.3l-3.4,2.3l-3.5,0.9
	l-5,2.8l-2.8-6h-3.1v-3.9c0,0,1.3,1.1,3.1,0c1.8-1.1,3.7-3,3.7-3l-0.9-4l-2.8-4.7l0.9-5l0.5-4.1v-3.1l-4.5-3.3l2.2-2.8v-2.3l1.4-2.9
	h2.8l0.5-4h2.3h2.3h2.9l3.5-0.9l1.4-4.7h4.6l4.6-2.7V261l0.9-4.5l1.4-2.8l0.5-2.9l-1.4-4l4.1-2.9l1.4-4l4.6-3.2l5.9-6V227h2.8h3.3
	l2.6,2.3l4.6,0.9h3.2L337.2,233.1z"/>
<path class="st0" d="M338.3,312.4v-3.9v-4.8l3.2-2.1h3.7l4.6,2.6l1.2-1.4l1.1-1.2l1.8,5.4l2.3,1.5l3.2,3.9l4.1,2.8v3.2l2.3,3.2v3.2
	v7.7l5,3.8h3.1h1.9l3.2-3.8l1.8,3.8l2.3,4.4v3.9v3.7l-3.2,3.7l-1.4,3.2H374l2.4-6l-2.4-1.4l-3.1-1.4l-2.8-0.5l-7.3-0.5v3.2l-5.5,3.7
	l0.5,2.8l0.5,1.8l-1.4,4.6h-3.7H347l-4.1,2.8h-4.6l-2.3,4.1l-2.3,4.1v2.8l2.8,1.8l2.8,4.1v2.3l-0.5,3.7l0.9,3.2l2.8,2.8l-1.4,6v4.6
	l3.2,3.7l2.3,2.3l5.5,18.8h-2.8h-4.1H341l-2.8-2.3l-2.8,2.3h-3.7v4.1l-2.3,1.8h-4.1h-2.2l-6.1,2.3l-2.2,1.8l-5.5,1.8h-3.2H302h-3.2
	l-2.3,6.9v3.7l-2.8,2.3H290h-6.4h-5.5l-4.1,1.8l-2.7,2.8v3.7l-4.6,4.1h-4.1l-3.2,1.8l-2.3,2.3l-6.9,6.4v3.2l-5.5,1.8h-4.1l-2.8-2.3
	l-2.3-4.1l4.1-3.7l0.5-3.7l1.8-3.2v-3.7l-0.9-5l4.1-1.8l4.1-0.9l2.3-3.2v-2.3l-3.2-1.4l-2.3-2.8l-2.3-2.3l0.5-3.7l1.8-3.2l-3.7-1.8
	v-2.3l-2.3-1.4l-1.8-6l-2.8-5v-4.1v-2.8V406l5.5-2.8l5-7.8l2.8-4l1.8-1.9v-6l2.3-2.3l-2.8-1.8l-4.1-0.5l-0.5-6.2l0.9-3.4l-0.9-4.1
	l2.8-0.9l1.4-2.3l5.4-0.9h2.4l0.5-6c0,0-1.4-2.8,0-2.8s1.4,0,1.4,0l1.8-2.3l0.9-3.2c2.3-0.9,2.3-0.9,2.3-0.9l2.3-3.2l1.8-2.1
	l2.8-3.9v-2.3l2.2-1.9h3.7v-5v-2.8l2.3-2.8v-3.6l1.4-2.3l2.3-3.7l2.5,1.9l3-1.9l1.8-3.9l1.8,3.9h2.8l2.3,3.3l-0.9,2.8l2.3,4.1
	l1.4,2.3l2.8,2.8l1.4-2.8l2.3-6.4l2.8-1.4l4.1-1.4l3.6-1.4l3.3,1.8l2.9-0.5l3.5-3.3h3.7l3.2,2.3h4.1"/>
<path class="st0" d="M405,341.7l-3.2,4.4v5h-3.7l-2.8,2.8v2.3v3.7l-3.7,1.8l2.8,2.8l1.4,4.1h2.5l3.4,5c0,0,0.9,1.4,0,3.2
	s0,8.7,0,8.7l3.2,3.7l2.8,3.2v3.8v6.3h3.7l5,3.3l6.9,2.8h3.7l4.9,2.3l3.8-4.6h3.7l1.8-3.7h2.3l8.2-2.7l6.9-1.4h5.5l7.3,4.1l7.8,2.3
	h4.6l4.1,1.8l4.1,0.5h2.8l5,1.4h4.6l3.7,2.3v3.7c0,0,1.8,0,3.2,0c1.4,0,5.5,4.1,5.5,4.1l3.7,3.2l2.8,1.8h2.3l2.3,3.2l3.2-2.8
	l20.2-133.9h-5l-2.8,4.1l-1.8,8.2l-2.8,3.9l-0.9,3.3h-4.6l-2.8-3.3l-3.2,3.3h-2.3H522h-3.2l-3.7-3.3h-6h-4.6l-4.1,3.3l-1.8,3.9
	l-2.8,6h-4.1l-4.1-3.2h-4.1l-3.7,3.2l-2.8-3.2h-5.5v-4.6l-4.1,1.8l-6.4-3.9h-4.1l-2.8-3.3l-3.2-3.7l-1.4,3.7l-2.3,3.3l-5.5,3.9h-5
	l-4.7,4.2l-3.5,6l-1.4,2.3H423l-1.8,4.1l-4.1,3.6l-1.4,2.4l-1.4,2.8l-4.1-0.5L405,341.7z"/>
<path class="st1" d="M343,342.8"/>
<polygon class="st0" points="326.1,338.2 330,332.2 343,332.2 348.8,341.2 341,353.4 330,353.4 326.1,342.8 "/>
<polygon class="st0" points="168.6,411.7 172.5,405.7 185.5,405.7 191.3,414.7 183.5,426.9 172.5,426.9 168.6,416.3 "/>
<polygon class="st0" points="279.3,352.2 283.2,346.2 296.2,346.2 302,355.2 294.2,367.4 283.2,367.4 279.3,356.8 "/>
</svg>
